<?xml version="1.0" encoding="UTF-8"?>
<svg width="44px" height="44px" viewBox="0 0 44 44" version="1.1" xmlns="http://www.w3.org/2000/svg" xmlns:xlink="http://www.w3.org/1999/xlink">
    <!-- Generator: Sketch 61.2 (89653) - https://sketch.com -->
    <title>Oval 2</title>
    <desc>Created with Sketch.</desc>
    <g id="Page-1" stroke="none" stroke-width="1" fill="none" fill-rule="evenodd">
        <path d="M22,0.5 C33.8741221,0.5 43.5,10.1258779 43.5,22 C43.5,33.8741221 33.8741221,43.5 22,43.5 C10.1258779,43.5 0.5,33.8741221 0.5,22 C0.5,10.1258779 10.1258779,0.5 22,0.5 Z M22,3.5 C11.7827321,3.5 3.5,11.7827321 3.5,22 C3.5,32.2172679 11.7827321,40.5 22,40.5 C32.2172679,40.5 40.5,32.2172679 40.5,22 C40.5,11.7827321 32.2172679,3.5 22,3.5 Z M16.5,35 L16.5,10 L32.1421356,22.5 L16.5,35 Z M19.5,16 L19.5,29 L27.5,22.5003869 L19.5,16 Z" id="Oval-2" fill="#CCA4A4" fill-rule="nonzero"></path>
    </g>
</svg>